<?xml version="1.0" encoding="UTF-8"?>
<svg id="Layer_1" xmlns="http://www.w3.org/2000/svg" version="1.1" viewBox="0 0 1080 1080">
  <!-- Generator: Adobe Illustrator 29.2.0, SVG Export Plug-In . SVG Version: 2.1.0 Build 108)  -->
  <path d="M506.3,895.08c0,55.74-45.18,100.92-100.92,100.92s-100.91-45.18-100.91-100.92,45.18-100.92,100.91-100.92,100.92,45.19,100.92,100.92Z"/>
  <path d="M1031.89,336.31l-120.87,396.88c-4.9,23.83-23.36,40.66-44.6,40.66H316.79c-22.78,0-42.11-19.3-45.37-45.29l-35.46-282.98-.64.09-39.13-292.61H45.86c-14.28,0-25.86-11.57-25.86-25.86v-18.34c0-14.28,11.58-25.86,25.86-25.86h220.68v8.65l21.89,163.64,683.85,2.45c29.53.1,66.41,45.44,59.61,78.57Z"/>
  <path d="M886.94,895.08c0,55.74-45.18,100.92-100.91,100.92s-100.92-45.18-100.92-100.92,45.18-100.92,100.92-100.92,100.91,45.19,100.91,100.92Z"/>
</svg>