<?xml version="1.0" encoding="UTF-8"?>
<svg id="Layer_2" data-name="Layer 2" xmlns="http://www.w3.org/2000/svg" viewBox="0 0 151.67 151.67">
  <defs>
    <style>
      .cls-1 {
        fill: #fff;
      }
    </style>
  </defs>
  <g id="Layer_1-2" data-name="Layer 1">
    <g>
      <path class="cls-1" d="M75.83,151.67C34.02,151.67,0,117.65,0,75.83S34.02,0,75.83,0s75.83,34.02,75.83,75.83-34.02,75.83-75.83,75.83ZM75.83,7C37.88,7,7,37.88,7,75.83s30.88,68.83,68.83,68.83,68.83-30.88,68.83-68.83S113.79,7,75.83,7Z"/>
      <path class="cls-1" d="M99.6,107.57h-47.53c-4.4,0-7.97-3.58-7.97-7.97v-47.53c0-4.4,3.58-7.97,7.97-7.97h47.53c4.4,0,7.97,3.58,7.97,7.97v47.53c0,4.4-3.58,7.97-7.97,7.97ZM52.07,47.1c-2.74,0-4.97,2.23-4.97,4.97v47.53c0,2.74,2.23,4.97,4.97,4.97h47.53c2.74,0,4.97-2.23,4.97-4.97v-47.53c0-2.74-2.23-4.97-4.97-4.97h-47.53Z"/>
      <path class="cls-1" d="M75.83,96.13c-11.19,0-20.3-9.11-20.3-20.3s9.11-20.3,20.3-20.3,20.3,9.11,20.3,20.3-9.11,20.3-20.3,20.3ZM75.83,58.54c-9.54,0-17.3,7.76-17.3,17.3s7.76,17.3,17.3,17.3,17.3-7.76,17.3-17.3-7.76-17.3-17.3-17.3Z"/>
      <circle class="cls-1" cx="96.13" cy="55.54" r="1.73"/>
    </g>
  </g>
</svg>