<?xml version="1.0" encoding="UTF-8"?>
<svg id="Layer_1" xmlns="http://www.w3.org/2000/svg" version="1.1" viewBox="0 0 1080 1080">
  <!-- Generator: Adobe Illustrator 29.0.1, SVG Export Plug-In . SVG Version: 2.1.0 Build 192)  -->
  <defs>
    <style>
      .st0 {
        fill: #fff;
      }
    </style>
  </defs>
  <path class="st0" d="M765.5,964h-452c-108.9,0-197.5-88.6-197.5-197.5v-452c0-108.9,88.6-197.5,197.5-197.5h452c108.9,0,197.5,88.6,197.5,197.5v452c0,108.9-88.6,197.5-197.5,197.5ZM313.5,162c-84.1,0-152.5,68.4-152.5,152.5v452c0,84.1,68.4,152.5,152.5,152.5h452c84.1,0,152.5-68.4,152.5-152.5v-452c0-84.1-68.4-152.5-152.5-152.5h-452Z"/>
  <path class="st0" d="M539.5,785c-61.8,0-120-24.1-163.7-67.8s-67.8-101.9-67.8-163.7,24.1-120,67.8-163.7,101.9-67.8,163.7-67.8,120,24.1,163.7,67.8,67.8,101.9,67.8,163.7-24.1,120-67.8,163.7-101.9,67.8-163.7,67.8ZM539.5,367c-102.8,0-186.5,83.7-186.5,186.5s83.7,186.5,186.5,186.5,186.5-83.7,186.5-186.5-83.7-186.5-186.5-186.5Z"/>
  <circle class="st0" cx="788.5" cy="283.5" r="61.5"/>
</svg>