<?xml version="1.0" encoding="UTF-8"?>
<svg id="Layer_1" xmlns="http://www.w3.org/2000/svg" version="1.1" viewBox="0 0 1080 1080">
  <!-- Generator: Adobe Illustrator 29.0.1, SVG Export Plug-In . SVG Version: 2.1.0 Build 192)  -->
  <path d="M991.4,962.4l-362-362c.2-.2.3-.3.5-.5,31.1-31.1,55.5-67.3,72.6-107.7,17.7-41.8,26.6-86.2,26.6-131.9s-9-90.1-26.6-131.9c-17.1-40.4-41.5-76.6-72.6-107.7-31.1-31.1-67.3-55.5-107.7-72.6-41.8-17.7-86.2-26.6-131.9-26.6s-90.1,9-131.9,26.6c-40.4,17.1-76.6,41.5-107.7,72.6-31.1,31.1-55.5,67.3-72.6,107.7-17.7,41.8-26.6,86.2-26.6,131.9s9,90.1,26.6,131.9c17.1,40.4,41.5,76.6,72.6,107.7,31.1,31.1,67.3,55.5,107.7,72.6,41.8,17.7,86.2,26.6,131.9,26.6s90.1-9,131.9-26.6c14.8-6.3,29.1-13.5,42.7-21.7l369.1,369.1c9.8,9.8,25.6,9.8,35.4,0l22.1-22.1c9.8-9.8,9.8-25.6,0-35.4ZM390.3,639.1c-74.5,0-144.5-29-197.2-81.7-52.7-52.7-81.7-122.7-81.7-197.2s29-144.5,81.7-197.2c52.7-52.7,122.7-81.7,197.2-81.7s144.5,29,197.2,81.7c52.7,52.7,81.7,122.7,81.7,197.2s-29,144.5-81.7,197.2c-52.7,52.7-122.7,81.7-197.2,81.7Z"/>
</svg>