<?xml version="1.0" encoding="UTF-8"?>
<svg id="Layer_2" data-name="Layer 2" xmlns="http://www.w3.org/2000/svg" viewBox="0 0 151.67 151.67">
  <defs>
    <style>
      .cls-1 {
        fill: #fff;
      }
    </style>
  </defs>
  <g id="Layer_1-2" data-name="Layer 1">
    <g>
      <path class="cls-1" d="M75.83,151.67C34.02,151.67,0,117.65,0,75.83S34.02,0,75.83,0s75.83,34.02,75.83,75.83-34.02,75.83-75.83,75.83ZM75.83,7C37.88,7,7,37.88,7,75.83s30.88,68.83,68.83,68.83,68.83-30.88,68.83-68.83S113.79,7,75.83,7Z"/>
      <path class="cls-1" d="M82.75,71.42l10.53-16.38h-11.4l-5.83,10.41-5.99-10.41h-11.51l10.61,16.2-11.67,17.63h11.67l6.68-10.87,6.68,10.87h11.74l-11.52-17.44ZM61.34,56.93h7.76l22.07,30.31h-7.42l-22.41-30.31Z"/>
    </g>
  </g>
</svg>