<?xml version="1.0" encoding="UTF-8"?>
<svg id="Layer_2" data-name="Layer 2" xmlns="http://www.w3.org/2000/svg" viewBox="0 0 151.67 151.67">
  <defs>
    <style>
      .cls-1 {
        fill: #fff;
      }
    </style>
  </defs>
  <g id="Layer_1-2" data-name="Layer 1">
    <g>
      <path class="cls-1" d="M75.83,151.67C34.02,151.67,0,117.65,0,75.83S34.02,0,75.83,0s75.83,34.02,75.83,75.83-34.02,75.83-75.83,75.83ZM75.83,7C37.88,7,7,37.88,7,75.83s30.88,68.83,68.83,68.83,68.83-30.88,68.83-68.83S113.79,7,75.83,7Z"/>
      <path class="cls-1" d="M90.54,74.27l-27.6-15.94c-1.2-.7-2.71.17-2.71,1.56v31.87c0,1.39,1.51,2.26,2.71,1.56l27.6-15.94c1.2-.7,1.2-2.43,0-3.13Z"/>
    </g>
  </g>
</svg>